# xmcd CD database file
#
# Track frame offsets:
#	150
#	10674
#	22691
#	30563
#	48592
#	58798
#	70952
#	82747
#	96978
#	113820
#	120016
#	134138
#	139942
#	151751
#	159947
#	166038
#	183490
#	197214
#	235038
#	247984
#
# Disc length: 3429 seconds
#
# Revision: 1
# Processed by: cddbd v1.5.2PL0 Copyright (c) Steve Scherf et al.
# Submitted via: CDex 1.70beta2
#
DISCID=f40d6314
DTITLE=Gary Husband - The Complete Diary of a Plastic Box CD1
DYEAR=2008
DGENRE=Jazz
TTITLE0=Gary Husband - Invocation
TTITLE1=Gary Husband - England Green
TTITLE2=Gary Husband - The Signpost Maker
TTITLE3=Gary Husband - a) View Though The Scaffold b) Dream Of Love
TTITLE4=Gary Husband - 2 Mins 16 Seconds For Miles Dewey
TTITLE5=Gary Husband - a) Talking Traffic Light b) Something She Said
TTITLE6=Gary Husband - The Stranger
TTITLE7=Gary Husband - a) Alan Murphy b) White And Dark Ribbon 
TTITLE8=Gary Husband - a) Young Mice b) Moviehouse
TTITLE9=Gary Husband - Flashback
TTITLE10=Gary Husband - Le Petit Chemin De Fer
TTITLE11=Gary Husband - Blue Dreams
TTITLE12=Gary Husband - Savoy
TTITLE13=Gary Husband - The Photograph
TTITLE14=Gary Husband - Eyes Of A Clown
TTITLE15=Gary Husband - Promises Promises
TTITLE16=Gary Husband - a) Little Harbour b) Night Star
TTITLE17=Gary Husband - Some Splintered Road Jazz Pt. 1 and 2
TTITLE18=Gary Husband - a) Shapes In The Snow b) Quiet Street
TTITLE19=Gary Husband - Deja Vu Express
EXTD=YEAR: 2008
EXTT0=
EXTT1=
EXTT2=
EXTT3=
EXTT4=
EXTT5=
EXTT6=
EXTT7=
EXTT8=
EXTT9=
EXTT10=
EXTT11=
EXTT12=
EXTT13=
EXTT14=
EXTT15=
EXTT16=
EXTT17=
EXTT18=
EXTT19=
PLAYORDER=
